<svg id="visual" viewBox="0 0 900 600" width="900" height="600" xmlns="http://www.w3.org/2000/svg" xmlns:xlink="http://www.w3.org/1999/xlink" version="1.1"><path d="M0 73L21.5 72C43 71 86 69 128.8 66C171.7 63 214.3 59 257.2 54C300 49 343 43 385.8 43C428.7 43 471.3 49 514.2 50C557 51 600 47 642.8 48C685.7 49 728.3 55 771.2 54C814 53 857 45 878.5 41L900 37L900 0L878.5 0C857 0 814 0 771.2 0C728.3 0 685.7 0 642.8 0C600 0 557 0 514.2 0C471.3 0 428.7 0 385.8 0C343 0 300 0 257.2 0C214.3 0 171.7 0 128.8 0C86 0 43 0 21.5 0L0 0Z" fill="#1550a1"></path><path d="M0 109L21.5 112C43 115 86 121 128.8 121C171.7 121 214.3 115 257.2 110C300 105 343 101 385.8 99C428.7 97 471.3 97 514.2 93C557 89 600 81 642.8 80C685.7 79 728.3 85 771.2 84C814 83 857 75 878.5 71L900 67L900 35L878.5 39C857 43 814 51 771.2 52C728.3 53 685.7 47 642.8 46C600 45 557 49 514.2 48C471.3 47 428.7 41 385.8 41C343 41 300 47 257.2 52C214.3 57 171.7 61 128.8 64C86 67 43 69 21.5 70L0 71Z" fill="#195ab4"></path><path d="M0 223L21.5 222C43 221 86 219 128.8 230C171.7 241 214.3 265 257.2 271C300 277 343 265 385.8 254C428.7 243 471.3 233 514.2 218C557 203 600 183 642.8 177C685.7 171 728.3 179 771.2 186C814 193 857 199 878.5 202L900 205L900 65L878.5 69C857 73 814 81 771.2 82C728.3 83 685.7 77 642.8 78C600 79 557 87 514.2 91C471.3 95 428.7 95 385.8 97C343 99 300 103 257.2 108C214.3 113 171.7 119 128.8 119C86 119 43 113 21.5 110L0 107Z" fill="#1e63c7"></path><path d="M0 373L21.5 380C43 387 86 401 128.8 416C171.7 431 214.3 447 257.2 439C300 431 343 399 385.8 388C428.7 377 471.3 387 514.2 385C557 383 600 369 642.8 363C685.7 357 728.3 359 771.2 359C814 359 857 357 878.5 356L900 355L900 203L878.5 200C857 197 814 191 771.2 184C728.3 177 685.7 169 642.8 175C600 181 557 201 514.2 216C471.3 231 428.7 241 385.8 252C343 263 300 275 257.2 269C214.3 263 171.7 239 128.8 228C86 217 43 219 21.5 220L0 221Z" fill="#236ddb"></path><path d="M0 481L21.5 480C43 479 86 477 128.8 485C171.7 493 214.3 511 257.2 507C300 503 343 477 385.8 471C428.7 465 471.3 479 514.2 477C557 475 600 457 642.8 450C685.7 443 728.3 447 771.2 451C814 455 857 459 878.5 461L900 463L900 353L878.5 354C857 355 814 357 771.2 357C728.3 357 685.7 355 642.8 361C600 367 557 381 514.2 383C471.3 385 428.7 375 385.8 386C343 397 300 429 257.2 437C214.3 445 171.7 429 128.8 414C86 399 43 385 21.5 378L0 371Z" fill="#407ce0"></path><path d="M0 535L21.5 532C43 529 86 523 128.8 527C171.7 531 214.3 545 257.2 545C300 545 343 531 385.8 530C428.7 529 471.3 541 514.2 538C557 535 600 517 642.8 509C685.7 501 728.3 503 771.2 509C814 515 857 525 878.5 530L900 535L900 461L878.5 459C857 457 814 453 771.2 449C728.3 445 685.7 441 642.8 448C600 455 557 473 514.2 475C471.3 477 428.7 463 385.8 469C343 475 300 501 257.2 505C214.3 509 171.7 491 128.8 483C86 475 43 477 21.5 478L0 479Z" fill="#568ae5"></path><path d="M0 601L21.5 601C43 601 86 601 128.8 601C171.7 601 214.3 601 257.2 601C300 601 343 601 385.8 601C428.7 601 471.3 601 514.2 601C557 601 600 601 642.8 601C685.7 601 728.3 601 771.2 601C814 601 857 601 878.5 601L900 601L900 533L878.5 528C857 523 814 513 771.2 507C728.3 501 685.7 499 642.8 507C600 515 557 533 514.2 536C471.3 539 428.7 527 385.8 528C343 529 300 543 257.2 543C214.3 543 171.7 529 128.8 525C86 521 43 527 21.5 530L0 533Z" fill="#6b99e9"></path></svg>